<mxfile host="app.diagrams.net" agent="Mozilla/5.0 (X11; Linux x86_64) AppleWebKit/537.36 (KHTML, like Gecko) Chrome/125.0.0.0 Safari/537.36" version="24.7.10">
  <diagram name="第 1 页" id="cdRovTHZZHpmHjENRxZ9">
    <mxGraphModel dx="1207" dy="614" grid="1" gridSize="10" guides="1" tooltips="1" connect="1" arrows="1" fold="1" page="1" pageScale="1" pageWidth="827" pageHeight="1169" math="0" shadow="0">
      <root>
        <mxCell id="0" />
        <mxCell id="1" parent="0" />
        <mxCell id="mKWzlH9LVkmcxLDkBurY-47" value="" style="rounded=0;whiteSpace=wrap;html=1;strokeWidth=2;" parent="1" vertex="1">
          <mxGeometry x="224.75" y="267.5" width="825.25" height="222.5" as="geometry" />
        </mxCell>
        <mxCell id="mKWzlH9LVkmcxLDkBurY-119" style="edgeStyle=orthogonalEdgeStyle;rounded=0;orthogonalLoop=1;jettySize=auto;html=1;exitX=1;exitY=0.5;exitDx=0;exitDy=0;" parent="1" source="mKWzlH9LVkmcxLDkBurY-3" edge="1">
          <mxGeometry relative="1" as="geometry">
            <mxPoint x="550" y="560" as="targetPoint" />
          </mxGeometry>
        </mxCell>
        <mxCell id="mKWzlH9LVkmcxLDkBurY-3" value="" style="shape=table;startSize=0;container=1;collapsible=0;childLayout=tableLayout;" parent="1" vertex="1">
          <mxGeometry x="337.5" y="520" width="90" height="80" as="geometry" />
        </mxCell>
        <mxCell id="mKWzlH9LVkmcxLDkBurY-4" value="" style="shape=tableRow;horizontal=0;startSize=0;swimlaneHead=0;swimlaneBody=0;strokeColor=inherit;top=0;left=0;bottom=0;right=0;collapsible=0;dropTarget=0;fillColor=none;points=[[0,0.5],[1,0.5]];portConstraint=eastwest;" parent="mKWzlH9LVkmcxLDkBurY-3" vertex="1">
          <mxGeometry width="90" height="80" as="geometry" />
        </mxCell>
        <mxCell id="mKWzlH9LVkmcxLDkBurY-5" value="" style="shape=partialRectangle;html=1;whiteSpace=wrap;connectable=0;strokeColor=#82b366;overflow=hidden;fillColor=#d5e8d4;top=0;left=0;bottom=0;right=0;pointerEvents=1;" parent="mKWzlH9LVkmcxLDkBurY-4" vertex="1">
          <mxGeometry width="45" height="80" as="geometry">
            <mxRectangle width="45" height="80" as="alternateBounds" />
          </mxGeometry>
        </mxCell>
        <mxCell id="mKWzlH9LVkmcxLDkBurY-6" value="" style="shape=partialRectangle;html=1;whiteSpace=wrap;connectable=0;strokeColor=#6c8ebf;overflow=hidden;fillColor=#dae8fc;top=0;left=0;bottom=0;right=0;pointerEvents=1;" parent="mKWzlH9LVkmcxLDkBurY-4" vertex="1">
          <mxGeometry x="45" width="45" height="80" as="geometry">
            <mxRectangle width="45" height="80" as="alternateBounds" />
          </mxGeometry>
        </mxCell>
        <mxCell id="mKWzlH9LVkmcxLDkBurY-34" style="edgeStyle=orthogonalEdgeStyle;rounded=0;orthogonalLoop=1;jettySize=auto;html=1;exitX=1;exitY=0.5;exitDx=0;exitDy=0;entryX=0;entryY=0.5;entryDx=0;entryDy=0;" parent="1" source="mKWzlH9LVkmcxLDkBurY-7" target="mKWzlH9LVkmcxLDkBurY-28" edge="1">
          <mxGeometry relative="1" as="geometry" />
        </mxCell>
        <mxCell id="mKWzlH9LVkmcxLDkBurY-45" style="edgeStyle=orthogonalEdgeStyle;rounded=0;orthogonalLoop=1;jettySize=auto;html=1;exitX=0.5;exitY=1;exitDx=0;exitDy=0;curved=1;" parent="1" source="mKWzlH9LVkmcxLDkBurY-7" target="mKWzlH9LVkmcxLDkBurY-4" edge="1">
          <mxGeometry relative="1" as="geometry" />
        </mxCell>
        <mxCell id="mKWzlH9LVkmcxLDkBurY-7" value="&lt;b&gt;&lt;font style=&quot;font-size: 16px;&quot;&gt;&lt;i&gt;Input&lt;/i&gt;&lt;/font&gt;&lt;/b&gt;" style="rounded=0;whiteSpace=wrap;html=1;" parent="1" vertex="1">
          <mxGeometry x="120" y="378" width="90" height="40" as="geometry" />
        </mxCell>
        <mxCell id="mKWzlH9LVkmcxLDkBurY-8" value="dim_em" style="text;html=1;align=center;verticalAlign=middle;whiteSpace=wrap;rounded=0;" parent="1" vertex="1">
          <mxGeometry x="112.5" y="350" width="105" height="30" as="geometry" />
        </mxCell>
        <mxCell id="mKWzlH9LVkmcxLDkBurY-9" value="dim_h" style="text;html=1;align=center;verticalAlign=middle;whiteSpace=wrap;rounded=0;" parent="1" vertex="1">
          <mxGeometry x="322.5" y="490" width="120" height="30" as="geometry" />
        </mxCell>
        <mxCell id="mKWzlH9LVkmcxLDkBurY-10" value="seq_len" style="text;html=1;align=center;verticalAlign=middle;whiteSpace=wrap;rounded=0;" parent="1" vertex="1">
          <mxGeometry x="52.5" y="385" width="60" height="30" as="geometry" />
        </mxCell>
        <mxCell id="mKWzlH9LVkmcxLDkBurY-11" value="dim_em" style="text;html=1;align=center;verticalAlign=middle;whiteSpace=wrap;rounded=0;" parent="1" vertex="1">
          <mxGeometry x="280" y="520" width="60" height="30" as="geometry" />
        </mxCell>
        <mxCell id="mKWzlH9LVkmcxLDkBurY-13" value="" style="shape=table;startSize=0;container=1;collapsible=0;childLayout=tableLayout;fillColor=#dae8fc;strokeColor=#6c8ebf;" parent="1" vertex="1">
          <mxGeometry x="550" y="536" width="92.5" height="40" as="geometry" />
        </mxCell>
        <mxCell id="mKWzlH9LVkmcxLDkBurY-14" value="" style="shape=tableRow;horizontal=0;startSize=0;swimlaneHead=0;swimlaneBody=0;strokeColor=inherit;top=0;left=0;bottom=0;right=0;collapsible=0;dropTarget=0;fillColor=none;points=[[0,0.5],[1,0.5]];portConstraint=eastwest;" parent="mKWzlH9LVkmcxLDkBurY-13" vertex="1">
          <mxGeometry width="92.5" height="40" as="geometry" />
        </mxCell>
        <mxCell id="mKWzlH9LVkmcxLDkBurY-15" value="" style="shape=partialRectangle;html=1;whiteSpace=wrap;connectable=0;strokeColor=#82b366;overflow=hidden;fillColor=#d5e8d4;top=0;left=0;bottom=0;right=0;pointerEvents=1;" parent="mKWzlH9LVkmcxLDkBurY-14" vertex="1">
          <mxGeometry width="46" height="40" as="geometry">
            <mxRectangle width="46" height="40" as="alternateBounds" />
          </mxGeometry>
        </mxCell>
        <mxCell id="mKWzlH9LVkmcxLDkBurY-16" value="" style="shape=partialRectangle;html=1;whiteSpace=wrap;connectable=0;strokeColor=inherit;overflow=hidden;fillColor=none;top=0;left=0;bottom=0;right=0;pointerEvents=1;" parent="mKWzlH9LVkmcxLDkBurY-14" vertex="1">
          <mxGeometry x="46" width="47" height="40" as="geometry">
            <mxRectangle width="47" height="40" as="alternateBounds" />
          </mxGeometry>
        </mxCell>
        <mxCell id="mKWzlH9LVkmcxLDkBurY-117" style="edgeStyle=orthogonalEdgeStyle;rounded=0;orthogonalLoop=1;jettySize=auto;html=1;exitX=0.5;exitY=1;exitDx=0;exitDy=0;entryX=0.5;entryY=0;entryDx=0;entryDy=0;dashed=1;curved=1;" parent="1" source="mKWzlH9LVkmcxLDkBurY-17" target="mKWzlH9LVkmcxLDkBurY-26" edge="1">
          <mxGeometry relative="1" as="geometry">
            <Array as="points">
              <mxPoint x="490" y="363" />
            </Array>
          </mxGeometry>
        </mxCell>
        <mxCell id="mKWzlH9LVkmcxLDkBurY-133" style="edgeStyle=orthogonalEdgeStyle;rounded=0;orthogonalLoop=1;jettySize=auto;html=1;exitX=1;exitY=0.5;exitDx=0;exitDy=0;" parent="1" source="mKWzlH9LVkmcxLDkBurY-135" target="mKWzlH9LVkmcxLDkBurY-125" edge="1">
          <mxGeometry relative="1" as="geometry" />
        </mxCell>
        <mxCell id="mKWzlH9LVkmcxLDkBurY-17" value="" style="shape=table;startSize=0;container=1;collapsible=0;childLayout=tableLayout;fillColor=#d5e8d4;strokeColor=#82b366;" parent="1" vertex="1">
          <mxGeometry x="414" y="327.5" width="40" height="35" as="geometry" />
        </mxCell>
        <mxCell id="mKWzlH9LVkmcxLDkBurY-18" value="" style="shape=tableRow;horizontal=0;startSize=0;swimlaneHead=0;swimlaneBody=0;strokeColor=inherit;top=0;left=0;bottom=0;right=0;collapsible=0;dropTarget=0;fillColor=none;points=[[0,0.5],[1,0.5]];portConstraint=eastwest;" parent="mKWzlH9LVkmcxLDkBurY-17" vertex="1">
          <mxGeometry width="40" height="35" as="geometry" />
        </mxCell>
        <mxCell id="mKWzlH9LVkmcxLDkBurY-19" value="" style="shape=partialRectangle;html=1;whiteSpace=wrap;connectable=0;strokeColor=#82b366;overflow=hidden;fillColor=#d5e8d4;top=0;left=0;bottom=0;right=0;pointerEvents=1;" parent="mKWzlH9LVkmcxLDkBurY-18" vertex="1">
          <mxGeometry width="40" height="35" as="geometry">
            <mxRectangle width="40" height="35" as="alternateBounds" />
          </mxGeometry>
        </mxCell>
        <mxCell id="mKWzlH9LVkmcxLDkBurY-132" style="edgeStyle=orthogonalEdgeStyle;rounded=0;orthogonalLoop=1;jettySize=auto;html=1;exitX=1;exitY=0.5;exitDx=0;exitDy=0;entryX=0;entryY=0.5;entryDx=0;entryDy=0;" parent="1" source="mKWzlH9LVkmcxLDkBurY-20" target="mKWzlH9LVkmcxLDkBurY-127" edge="1">
          <mxGeometry relative="1" as="geometry" />
        </mxCell>
        <mxCell id="mKWzlH9LVkmcxLDkBurY-20" value="" style="shape=table;startSize=0;container=1;collapsible=0;childLayout=tableLayout;fillColor=#dae8fc;strokeColor=#6c8ebf;" parent="1" vertex="1">
          <mxGeometry x="414" y="422.5" width="40" height="35" as="geometry" />
        </mxCell>
        <mxCell id="mKWzlH9LVkmcxLDkBurY-21" value="" style="shape=tableRow;horizontal=0;startSize=0;swimlaneHead=0;swimlaneBody=0;strokeColor=inherit;top=0;left=0;bottom=0;right=0;collapsible=0;dropTarget=0;fillColor=none;points=[[0,0.5],[1,0.5]];portConstraint=eastwest;" parent="mKWzlH9LVkmcxLDkBurY-20" vertex="1">
          <mxGeometry width="40" height="35" as="geometry" />
        </mxCell>
        <mxCell id="mKWzlH9LVkmcxLDkBurY-22" value="" style="shape=partialRectangle;html=1;whiteSpace=wrap;connectable=0;strokeColor=#6c8ebf;overflow=hidden;fillColor=#dae8fc;top=0;left=0;bottom=0;right=0;pointerEvents=1;" parent="mKWzlH9LVkmcxLDkBurY-21" vertex="1">
          <mxGeometry width="40" height="35" as="geometry">
            <mxRectangle width="40" height="35" as="alternateBounds" />
          </mxGeometry>
        </mxCell>
        <mxCell id="mKWzlH9LVkmcxLDkBurY-26" value="&lt;b&gt;&lt;i&gt;&lt;font style=&quot;font-size: 14px;&quot;&gt;concat&lt;/font&gt;&lt;/i&gt;&lt;/b&gt;" style="text;html=1;align=center;verticalAlign=middle;whiteSpace=wrap;rounded=0;" parent="1" vertex="1">
          <mxGeometry x="460" y="520" width="60" height="30" as="geometry" />
        </mxCell>
        <mxCell id="mKWzlH9LVkmcxLDkBurY-27" value="" style="shape=table;startSize=0;container=1;collapsible=0;childLayout=tableLayout;fillColor=#d5e8d4;strokeColor=#82b366;" parent="1" vertex="1">
          <mxGeometry x="300" y="305" width="40" height="80" as="geometry" />
        </mxCell>
        <mxCell id="mKWzlH9LVkmcxLDkBurY-28" value="" style="shape=tableRow;horizontal=0;startSize=0;swimlaneHead=0;swimlaneBody=0;strokeColor=inherit;top=0;left=0;bottom=0;right=0;collapsible=0;dropTarget=0;fillColor=none;points=[[0,0.5],[1,0.5]];portConstraint=eastwest;" parent="mKWzlH9LVkmcxLDkBurY-27" vertex="1">
          <mxGeometry width="40" height="80" as="geometry" />
        </mxCell>
        <mxCell id="mKWzlH9LVkmcxLDkBurY-29" value="" style="shape=partialRectangle;html=1;whiteSpace=wrap;connectable=0;strokeColor=inherit;overflow=hidden;fillColor=none;top=0;left=0;bottom=0;right=0;pointerEvents=1;" parent="mKWzlH9LVkmcxLDkBurY-28" vertex="1">
          <mxGeometry width="40" height="80" as="geometry">
            <mxRectangle width="40" height="80" as="alternateBounds" />
          </mxGeometry>
        </mxCell>
        <mxCell id="mKWzlH9LVkmcxLDkBurY-30" value="" style="shape=table;startSize=0;container=1;collapsible=0;childLayout=tableLayout;fillColor=#dae8fc;strokeColor=#6c8ebf;" parent="1" vertex="1">
          <mxGeometry x="300" y="400" width="40" height="80" as="geometry" />
        </mxCell>
        <mxCell id="mKWzlH9LVkmcxLDkBurY-31" value="" style="shape=tableRow;horizontal=0;startSize=0;swimlaneHead=0;swimlaneBody=0;strokeColor=inherit;top=0;left=0;bottom=0;right=0;collapsible=0;dropTarget=0;fillColor=none;points=[[0,0.5],[1,0.5]];portConstraint=eastwest;" parent="mKWzlH9LVkmcxLDkBurY-30" vertex="1">
          <mxGeometry width="40" height="80" as="geometry" />
        </mxCell>
        <mxCell id="mKWzlH9LVkmcxLDkBurY-32" value="" style="shape=partialRectangle;html=1;whiteSpace=wrap;connectable=0;strokeColor=inherit;overflow=hidden;fillColor=none;top=0;left=0;bottom=0;right=0;pointerEvents=1;" parent="mKWzlH9LVkmcxLDkBurY-31" vertex="1">
          <mxGeometry width="40" height="80" as="geometry">
            <mxRectangle width="40" height="80" as="alternateBounds" />
          </mxGeometry>
        </mxCell>
        <mxCell id="mKWzlH9LVkmcxLDkBurY-37" style="edgeStyle=orthogonalEdgeStyle;rounded=0;orthogonalLoop=1;jettySize=auto;html=1;exitX=0.5;exitY=1;exitDx=0;exitDy=0;entryX=0;entryY=0.5;entryDx=0;entryDy=0;" parent="1" source="mKWzlH9LVkmcxLDkBurY-33" target="mKWzlH9LVkmcxLDkBurY-31" edge="1">
          <mxGeometry relative="1" as="geometry" />
        </mxCell>
        <mxCell id="mKWzlH9LVkmcxLDkBurY-33" value="" style="shape=sumEllipse;perimeter=ellipsePerimeter;whiteSpace=wrap;html=1;backgroundOutline=1;" parent="1" vertex="1">
          <mxGeometry x="240" y="381" width="30" height="30" as="geometry" />
        </mxCell>
        <mxCell id="mKWzlH9LVkmcxLDkBurY-38" style="edgeStyle=orthogonalEdgeStyle;rounded=0;orthogonalLoop=1;jettySize=auto;html=1;exitX=1;exitY=0.5;exitDx=0;exitDy=0;" parent="1" source="mKWzlH9LVkmcxLDkBurY-28" target="mKWzlH9LVkmcxLDkBurY-18" edge="1">
          <mxGeometry relative="1" as="geometry" />
        </mxCell>
        <mxCell id="mKWzlH9LVkmcxLDkBurY-39" style="edgeStyle=orthogonalEdgeStyle;rounded=0;orthogonalLoop=1;jettySize=auto;html=1;exitX=1;exitY=0.5;exitDx=0;exitDy=0;entryX=0;entryY=0.5;entryDx=0;entryDy=0;" parent="1" source="mKWzlH9LVkmcxLDkBurY-31" target="mKWzlH9LVkmcxLDkBurY-21" edge="1">
          <mxGeometry relative="1" as="geometry" />
        </mxCell>
        <mxCell id="mKWzlH9LVkmcxLDkBurY-40" value="&lt;b&gt;&lt;font style=&quot;font-size: 18px;&quot;&gt;W&lt;sub&gt;1&lt;/sub&gt;&lt;/font&gt;&lt;/b&gt;" style="text;html=1;align=center;verticalAlign=middle;whiteSpace=wrap;rounded=0;" parent="1" vertex="1">
          <mxGeometry x="352.5" y="545" width="60" height="30" as="geometry" />
        </mxCell>
        <mxCell id="mKWzlH9LVkmcxLDkBurY-41" value="dim_h / 2" style="text;html=1;align=center;verticalAlign=middle;whiteSpace=wrap;rounded=0;" parent="1" vertex="1">
          <mxGeometry x="286.25" y="275" width="72.5" height="30" as="geometry" />
        </mxCell>
        <mxCell id="mKWzlH9LVkmcxLDkBurY-42" value="seq_len * dim_h / 2" style="text;html=1;align=center;verticalAlign=middle;whiteSpace=wrap;rounded=0;" parent="1" vertex="1">
          <mxGeometry x="358.75" y="297.5" width="136" height="30" as="geometry" />
        </mxCell>
        <mxCell id="mKWzlH9LVkmcxLDkBurY-43" value="seq_len, dim_h" style="text;html=1;align=center;verticalAlign=middle;whiteSpace=wrap;rounded=0;" parent="1" vertex="1">
          <mxGeometry x="530" y="500" width="119.75" height="30" as="geometry" />
        </mxCell>
        <mxCell id="mKWzlH9LVkmcxLDkBurY-48" value="" style="shape=sumEllipse;perimeter=ellipsePerimeter;whiteSpace=wrap;html=1;backgroundOutline=1;" parent="1" vertex="1">
          <mxGeometry x="187.5" y="510" width="30" height="30" as="geometry" />
        </mxCell>
        <mxCell id="mKWzlH9LVkmcxLDkBurY-151" style="edgeStyle=orthogonalEdgeStyle;rounded=0;orthogonalLoop=1;jettySize=auto;html=1;exitX=1;exitY=0.5;exitDx=0;exitDy=0;" parent="1" source="mKWzlH9LVkmcxLDkBurY-92" edge="1">
          <mxGeometry relative="1" as="geometry">
            <mxPoint x="980" y="554" as="targetPoint" />
          </mxGeometry>
        </mxCell>
        <mxCell id="mKWzlH9LVkmcxLDkBurY-92" value="" style="shape=table;startSize=0;container=1;collapsible=0;childLayout=tableLayout;" parent="1" vertex="1">
          <mxGeometry x="754" y="514" width="95" height="80" as="geometry" />
        </mxCell>
        <mxCell id="mKWzlH9LVkmcxLDkBurY-93" value="" style="shape=tableRow;horizontal=0;startSize=0;swimlaneHead=0;swimlaneBody=0;strokeColor=inherit;top=0;left=0;bottom=0;right=0;collapsible=0;dropTarget=0;fillColor=none;points=[[0,0.5],[1,0.5]];portConstraint=eastwest;" parent="mKWzlH9LVkmcxLDkBurY-92" vertex="1">
          <mxGeometry width="95" height="40" as="geometry" />
        </mxCell>
        <mxCell id="mKWzlH9LVkmcxLDkBurY-94" value="" style="shape=partialRectangle;html=1;whiteSpace=wrap;connectable=0;strokeColor=#d6b656;overflow=hidden;fillColor=#fff2cc;top=0;left=0;bottom=0;right=0;pointerEvents=1;" parent="mKWzlH9LVkmcxLDkBurY-93" vertex="1">
          <mxGeometry width="95" height="40" as="geometry">
            <mxRectangle width="95" height="40" as="alternateBounds" />
          </mxGeometry>
        </mxCell>
        <mxCell id="mKWzlH9LVkmcxLDkBurY-95" value="" style="shape=tableRow;horizontal=0;startSize=0;swimlaneHead=0;swimlaneBody=0;strokeColor=inherit;top=0;left=0;bottom=0;right=0;collapsible=0;dropTarget=0;fillColor=none;points=[[0,0.5],[1,0.5]];portConstraint=eastwest;" parent="mKWzlH9LVkmcxLDkBurY-92" vertex="1">
          <mxGeometry y="40" width="95" height="40" as="geometry" />
        </mxCell>
        <mxCell id="mKWzlH9LVkmcxLDkBurY-96" value="" style="shape=partialRectangle;html=1;whiteSpace=wrap;connectable=0;strokeColor=#b85450;overflow=hidden;fillColor=#f8cecc;top=0;left=0;bottom=0;right=0;pointerEvents=1;" parent="mKWzlH9LVkmcxLDkBurY-95" vertex="1">
          <mxGeometry width="95" height="40" as="geometry">
            <mxRectangle width="95" height="40" as="alternateBounds" />
          </mxGeometry>
        </mxCell>
        <mxCell id="mKWzlH9LVkmcxLDkBurY-111" value="dim_h" style="text;html=1;align=center;verticalAlign=middle;whiteSpace=wrap;rounded=0;" parent="1" vertex="1">
          <mxGeometry x="700" y="510" width="60" height="30" as="geometry" />
        </mxCell>
        <mxCell id="mKWzlH9LVkmcxLDkBurY-112" value="dim_h2" style="text;html=1;align=center;verticalAlign=middle;whiteSpace=wrap;rounded=0;" parent="1" vertex="1">
          <mxGeometry x="771.5" y="484" width="60" height="30" as="geometry" />
        </mxCell>
        <mxCell id="mKWzlH9LVkmcxLDkBurY-113" value="&lt;b&gt;&lt;font style=&quot;font-size: 17px;&quot;&gt;W&lt;sub&gt;2&lt;/sub&gt;&lt;/font&gt;&lt;/b&gt;" style="text;html=1;align=center;verticalAlign=middle;whiteSpace=wrap;rounded=0;" parent="1" vertex="1">
          <mxGeometry x="771.5" y="540" width="60" height="30" as="geometry" />
        </mxCell>
        <mxCell id="mKWzlH9LVkmcxLDkBurY-116" style="edgeStyle=orthogonalEdgeStyle;rounded=0;orthogonalLoop=1;jettySize=auto;html=1;exitX=0.5;exitY=1;exitDx=0;exitDy=0;entryX=0.25;entryY=0;entryDx=0;entryDy=0;dashed=1;curved=1;" parent="1" source="mKWzlH9LVkmcxLDkBurY-20" target="mKWzlH9LVkmcxLDkBurY-26" edge="1">
          <mxGeometry relative="1" as="geometry">
            <Array as="points">
              <mxPoint x="460" y="458" />
              <mxPoint x="460" y="520" />
            </Array>
          </mxGeometry>
        </mxCell>
        <mxCell id="mKWzlH9LVkmcxLDkBurY-121" value="" style="endArrow=classic;html=1;rounded=0;exitX=1;exitY=0.5;exitDx=0;exitDy=0;entryX=0;entryY=0.5;entryDx=0;entryDy=0;dashed=1;" parent="1" source="mKWzlH9LVkmcxLDkBurY-26" target="mKWzlH9LVkmcxLDkBurY-14" edge="1">
          <mxGeometry width="50" height="50" relative="1" as="geometry">
            <mxPoint x="660" y="520" as="sourcePoint" />
            <mxPoint x="710" y="470" as="targetPoint" />
          </mxGeometry>
        </mxCell>
        <mxCell id="mKWzlH9LVkmcxLDkBurY-122" style="edgeStyle=orthogonalEdgeStyle;rounded=0;orthogonalLoop=1;jettySize=auto;html=1;exitX=1;exitY=0.5;exitDx=0;exitDy=0;entryX=0.01;entryY=0.03;entryDx=0;entryDy=0;entryPerimeter=0;" parent="1" source="mKWzlH9LVkmcxLDkBurY-14" target="mKWzlH9LVkmcxLDkBurY-95" edge="1">
          <mxGeometry relative="1" as="geometry" />
        </mxCell>
        <mxCell id="mKWzlH9LVkmcxLDkBurY-123" value="" style="shape=sumEllipse;perimeter=ellipsePerimeter;whiteSpace=wrap;html=1;backgroundOutline=1;" parent="1" vertex="1">
          <mxGeometry x="670" y="540" width="30" height="30" as="geometry" />
        </mxCell>
        <mxCell id="mKWzlH9LVkmcxLDkBurY-146" style="edgeStyle=orthogonalEdgeStyle;rounded=0;orthogonalLoop=1;jettySize=auto;html=1;exitX=1;exitY=0.5;exitDx=0;exitDy=0;entryX=0;entryY=0.5;entryDx=0;entryDy=0;" parent="1" source="mKWzlH9LVkmcxLDkBurY-124" target="mKWzlH9LVkmcxLDkBurY-139" edge="1">
          <mxGeometry relative="1" as="geometry" />
        </mxCell>
        <mxCell id="mKWzlH9LVkmcxLDkBurY-124" value="" style="shape=table;startSize=0;container=1;collapsible=0;childLayout=tableLayout;" parent="1" vertex="1">
          <mxGeometry x="753" y="324.5" width="96" height="40" as="geometry" />
        </mxCell>
        <mxCell id="mKWzlH9LVkmcxLDkBurY-125" value="" style="shape=tableRow;horizontal=0;startSize=0;swimlaneHead=0;swimlaneBody=0;strokeColor=inherit;top=0;left=0;bottom=0;right=0;collapsible=0;dropTarget=0;fillColor=none;points=[[0,0.5],[1,0.5]];portConstraint=eastwest;" parent="mKWzlH9LVkmcxLDkBurY-124" vertex="1">
          <mxGeometry width="96" height="40" as="geometry" />
        </mxCell>
        <mxCell id="mKWzlH9LVkmcxLDkBurY-126" value="" style="shape=partialRectangle;html=1;whiteSpace=wrap;connectable=0;strokeColor=#d6b656;overflow=hidden;fillColor=#fff2cc;top=0;left=0;bottom=0;right=0;pointerEvents=1;" parent="mKWzlH9LVkmcxLDkBurY-125" vertex="1">
          <mxGeometry width="96" height="40" as="geometry">
            <mxRectangle width="96" height="40" as="alternateBounds" />
          </mxGeometry>
        </mxCell>
        <mxCell id="mKWzlH9LVkmcxLDkBurY-145" style="edgeStyle=orthogonalEdgeStyle;rounded=0;orthogonalLoop=1;jettySize=auto;html=1;exitX=1;exitY=0.5;exitDx=0;exitDy=0;entryX=0;entryY=0.5;entryDx=0;entryDy=0;" parent="1" source="mKWzlH9LVkmcxLDkBurY-127" target="mKWzlH9LVkmcxLDkBurY-142" edge="1">
          <mxGeometry relative="1" as="geometry" />
        </mxCell>
        <mxCell id="mKWzlH9LVkmcxLDkBurY-127" value="" style="shape=table;startSize=0;container=1;collapsible=0;childLayout=tableLayout;" parent="1" vertex="1">
          <mxGeometry x="752" y="419.5" width="96" height="40" as="geometry" />
        </mxCell>
        <mxCell id="mKWzlH9LVkmcxLDkBurY-128" value="" style="shape=tableRow;horizontal=0;startSize=0;swimlaneHead=0;swimlaneBody=0;strokeColor=inherit;top=0;left=0;bottom=0;right=0;collapsible=0;dropTarget=0;fillColor=none;points=[[0,0.5],[1,0.5]];portConstraint=eastwest;" parent="mKWzlH9LVkmcxLDkBurY-127" vertex="1">
          <mxGeometry width="96" height="40" as="geometry" />
        </mxCell>
        <mxCell id="mKWzlH9LVkmcxLDkBurY-129" value="" style="shape=partialRectangle;html=1;whiteSpace=wrap;connectable=0;strokeColor=#b85450;overflow=hidden;fillColor=#f8cecc;top=0;left=0;bottom=0;right=0;pointerEvents=1;" parent="mKWzlH9LVkmcxLDkBurY-128" vertex="1">
          <mxGeometry width="96" height="40" as="geometry">
            <mxRectangle width="96" height="40" as="alternateBounds" />
          </mxGeometry>
        </mxCell>
        <mxCell id="mKWzlH9LVkmcxLDkBurY-130" value="dim_h2" style="text;html=1;align=center;verticalAlign=middle;whiteSpace=wrap;rounded=0;" parent="1" vertex="1">
          <mxGeometry x="767" y="294.5" width="60" height="30" as="geometry" />
        </mxCell>
        <mxCell id="mKWzlH9LVkmcxLDkBurY-131" value="dim_h / 2" style="text;html=1;align=center;verticalAlign=middle;whiteSpace=wrap;rounded=0;" parent="1" vertex="1">
          <mxGeometry x="692" y="315" width="60" height="30" as="geometry" />
        </mxCell>
        <mxCell id="mKWzlH9LVkmcxLDkBurY-134" value="" style="shape=sumEllipse;perimeter=ellipsePerimeter;whiteSpace=wrap;html=1;backgroundOutline=1;" parent="1" vertex="1">
          <mxGeometry x="574.88" y="425" width="30" height="30" as="geometry" />
        </mxCell>
        <mxCell id="mKWzlH9LVkmcxLDkBurY-137" value="" style="edgeStyle=orthogonalEdgeStyle;rounded=0;orthogonalLoop=1;jettySize=auto;html=1;exitX=1;exitY=0.5;exitDx=0;exitDy=0;endArrow=none;endFill=0;" parent="1" source="mKWzlH9LVkmcxLDkBurY-17" target="mKWzlH9LVkmcxLDkBurY-135" edge="1">
          <mxGeometry relative="1" as="geometry">
            <mxPoint x="454" y="345" as="sourcePoint" />
            <mxPoint x="753" y="345" as="targetPoint" />
          </mxGeometry>
        </mxCell>
        <mxCell id="mKWzlH9LVkmcxLDkBurY-135" value="" style="shape=sumEllipse;perimeter=ellipsePerimeter;whiteSpace=wrap;html=1;backgroundOutline=1;" parent="1" vertex="1">
          <mxGeometry x="574.87" y="329.5" width="30" height="30" as="geometry" />
        </mxCell>
        <mxCell id="mKWzlH9LVkmcxLDkBurY-153" style="edgeStyle=orthogonalEdgeStyle;rounded=0;orthogonalLoop=1;jettySize=auto;html=1;exitX=0.75;exitY=1;exitDx=0;exitDy=0;dashed=1;curved=1;entryX=0.669;entryY=-0.027;entryDx=0;entryDy=0;entryPerimeter=0;" parent="1" source="mKWzlH9LVkmcxLDkBurY-138" edge="1">
          <mxGeometry relative="1" as="geometry">
            <mxPoint x="1000.1399999999999" y="499.18999999999994" as="targetPoint" />
            <Array as="points">
              <mxPoint x="1000" y="361" />
            </Array>
          </mxGeometry>
        </mxCell>
        <mxCell id="mKWzlH9LVkmcxLDkBurY-138" value="" style="shape=table;startSize=0;container=1;collapsible=0;childLayout=tableLayout;fillColor=#fff2cc;strokeColor=#d6b656;" parent="1" vertex="1">
          <mxGeometry x="920" y="326.5" width="100" height="35" as="geometry" />
        </mxCell>
        <mxCell id="mKWzlH9LVkmcxLDkBurY-139" value="" style="shape=tableRow;horizontal=0;startSize=0;swimlaneHead=0;swimlaneBody=0;strokeColor=inherit;top=0;left=0;bottom=0;right=0;collapsible=0;dropTarget=0;fillColor=none;points=[[0,0.5],[1,0.5]];portConstraint=eastwest;" parent="mKWzlH9LVkmcxLDkBurY-138" vertex="1">
          <mxGeometry width="100" height="35" as="geometry" />
        </mxCell>
        <mxCell id="mKWzlH9LVkmcxLDkBurY-140" value="" style="shape=partialRectangle;html=1;whiteSpace=wrap;connectable=0;strokeColor=#d6b656;overflow=hidden;fillColor=#fff2cc;top=0;left=0;bottom=0;right=0;pointerEvents=1;" parent="mKWzlH9LVkmcxLDkBurY-139" vertex="1">
          <mxGeometry width="100" height="35" as="geometry">
            <mxRectangle width="100" height="35" as="alternateBounds" />
          </mxGeometry>
        </mxCell>
        <mxCell id="mKWzlH9LVkmcxLDkBurY-152" style="edgeStyle=orthogonalEdgeStyle;rounded=0;orthogonalLoop=1;jettySize=auto;html=1;exitX=0.5;exitY=1;exitDx=0;exitDy=0;dashed=1;curved=1;" parent="1" source="mKWzlH9LVkmcxLDkBurY-141" edge="1">
          <mxGeometry relative="1" as="geometry">
            <mxPoint x="980" y="500" as="targetPoint" />
          </mxGeometry>
        </mxCell>
        <mxCell id="mKWzlH9LVkmcxLDkBurY-141" value="" style="shape=table;startSize=0;container=1;collapsible=0;childLayout=tableLayout;fillColor=#d5e8d4;strokeColor=#82b366;" parent="1" vertex="1">
          <mxGeometry x="920" y="422" width="100" height="35" as="geometry" />
        </mxCell>
        <mxCell id="mKWzlH9LVkmcxLDkBurY-142" value="" style="shape=tableRow;horizontal=0;startSize=0;swimlaneHead=0;swimlaneBody=0;strokeColor=#b85450;top=0;left=0;bottom=0;right=0;collapsible=0;dropTarget=0;fillColor=#f8cecc;points=[[0,0.5],[1,0.5]];portConstraint=eastwest;" parent="mKWzlH9LVkmcxLDkBurY-141" vertex="1">
          <mxGeometry width="100" height="35" as="geometry" />
        </mxCell>
        <mxCell id="mKWzlH9LVkmcxLDkBurY-143" value="" style="shape=partialRectangle;html=1;whiteSpace=wrap;connectable=0;strokeColor=#b85450;overflow=hidden;fillColor=#f8cecc;top=0;left=0;bottom=0;right=0;pointerEvents=1;" parent="mKWzlH9LVkmcxLDkBurY-142" vertex="1">
          <mxGeometry width="100" height="35" as="geometry">
            <mxRectangle width="100" height="35" as="alternateBounds" />
          </mxGeometry>
        </mxCell>
        <mxCell id="mKWzlH9LVkmcxLDkBurY-144" value="seq_len * dim_h2" style="text;html=1;align=center;verticalAlign=middle;whiteSpace=wrap;rounded=0;" parent="1" vertex="1">
          <mxGeometry x="915" y="294.5" width="110" height="30" as="geometry" />
        </mxCell>
        <mxCell id="mKWzlH9LVkmcxLDkBurY-155" value="" style="endArrow=none;dashed=1;html=1;rounded=0;strokeWidth=2;fillColor=#0050ef;strokeColor=#001DBC;" parent="1" edge="1">
          <mxGeometry width="50" height="50" relative="1" as="geometry">
            <mxPoint x="270" y="394" as="sourcePoint" />
            <mxPoint x="1100" y="390" as="targetPoint" />
          </mxGeometry>
        </mxCell>
        <mxCell id="mKWzlH9LVkmcxLDkBurY-156" value="&lt;b&gt;&lt;font style=&quot;font-size: 17px;&quot;&gt;GPU0&lt;/font&gt;&lt;/b&gt;" style="text;html=1;align=center;verticalAlign=middle;whiteSpace=wrap;rounded=0;" parent="1" vertex="1">
          <mxGeometry x="1060" y="315" width="60" height="30" as="geometry" />
        </mxCell>
        <mxCell id="mKWzlH9LVkmcxLDkBurY-157" value="&lt;b&gt;&lt;font style=&quot;font-size: 17px;&quot;&gt;GPU1&lt;/font&gt;&lt;/b&gt;" style="text;html=1;align=center;verticalAlign=middle;whiteSpace=wrap;rounded=0;" parent="1" vertex="1">
          <mxGeometry x="1060" y="429.5" width="60" height="30" as="geometry" />
        </mxCell>
        <mxCell id="mKWzlH9LVkmcxLDkBurY-158" value="&lt;b&gt;&lt;i&gt;&lt;font style=&quot;font-size: 17px;&quot;&gt;Column parallel&lt;/font&gt;&lt;/i&gt;&lt;/b&gt;" style="text;html=1;align=center;verticalAlign=middle;whiteSpace=wrap;rounded=0;" parent="1" vertex="1">
          <mxGeometry x="286.25" y="230" width="171.25" height="30" as="geometry" />
        </mxCell>
        <mxCell id="mKWzlH9LVkmcxLDkBurY-159" value="&lt;b&gt;&lt;i&gt;&lt;font style=&quot;font-size: 17px;&quot;&gt;Row parallel&lt;/font&gt;&lt;/i&gt;&lt;/b&gt;" style="text;html=1;align=center;verticalAlign=middle;whiteSpace=wrap;rounded=0;" parent="1" vertex="1">
          <mxGeometry x="713.75" y="230" width="171.25" height="30" as="geometry" />
        </mxCell>
        <mxCell id="rr1X3Q6AXbM-6dndpf1p-1" value="" style="shape=orEllipse;perimeter=ellipsePerimeter;whiteSpace=wrap;html=1;backgroundOutline=1;" vertex="1" parent="1">
          <mxGeometry x="980" y="505" width="20" height="20" as="geometry" />
        </mxCell>
        <mxCell id="rr1X3Q6AXbM-6dndpf1p-2" value="" style="shape=partialRectangle;html=1;whiteSpace=wrap;connectable=0;strokeColor=#d6b656;overflow=hidden;fillColor=#fff2cc;top=0;left=0;bottom=0;right=0;pointerEvents=1;gradientColor=#ffd966;" vertex="1" parent="1">
          <mxGeometry x="980" y="535" width="100" height="35" as="geometry">
            <mxRectangle width="100" height="35" as="alternateBounds" />
          </mxGeometry>
        </mxCell>
      </root>
    </mxGraphModel>
  </diagram>
</mxfile>
